<svg xmlns="http://www.w3.org/2000/svg" width="1043" height="8" fill="none" viewBox="0 0 1043 8"><g opacity=".6"><path fill="#D8DBEF" d="M15.6234 0H20.6452L5.57977 8H0L15.6234 0Z"/><path fill="#D8DBEF" d="M36.2685 0H41.2903L26.2249 8H20.6452L36.2685 0Z"/><path fill="#D8DBEF" d="M56.9137 0H61.9355L46.8701 8H41.2903L56.9137 0Z"/><path fill="#D8DBEF" d="M77.5588 0H82.5806L67.5153 8H61.9355L77.5588 0Z"/><path fill="#D8DBEF" d="M98.204 0H103.226L88.1604 8H82.5806L98.204 0Z"/><path fill="#D8DBEF" d="M118.849 0H123.871L108.806 8H103.226L118.849 0Z"/><path fill="#D8DBEF" d="M139.494 0H144.516L129.451 8H123.871L139.494 0Z"/><path fill="#D8DBEF" d="M160.139 0H165.161L150.096 8H144.516L160.139 0Z"/><path fill="#D8DBEF" d="M180.785 0H185.806L170.741 8H165.161L180.785 0Z"/><path fill="#D8DBEF" d="M201.43 0H206.452L191.386 8H185.806L201.43 0Z"/><path fill="#D8DBEF" d="M222.075 0H227.097L212.031 8H206.452L222.075 0Z"/><path fill="#D8DBEF" d="M242.72 0H247.742L232.677 8H227.097L242.72 0Z"/><path fill="#D8DBEF" d="M263.365 0H268.387L253.322 8H247.742L263.365 0Z"/><path fill="#D8DBEF" d="M284.01 0H289.032L273.967 8H268.387L284.01 0Z"/><path fill="#D8DBEF" d="M304.656 0H309.677L294.612 8H289.032L304.656 0Z"/><path fill="#D8DBEF" d="M325.301 0H330.323L315.257 8H309.677L325.301 0Z"/><path fill="#D8DBEF" d="M345.946 0H350.968L335.902 8H330.323L345.946 0Z"/><path fill="#D8DBEF" d="M366.591 0H371.613L356.548 8H350.968L366.591 0Z"/><path fill="#D8DBEF" d="M387.236 0H392.258L377.193 8H371.613L387.236 0Z"/><path fill="#D8DBEF" d="M407.881 0H412.903L397.838 8H392.258L407.881 0Z"/><path fill="#D8DBEF" d="M428.527 0H433.548L418.483 8H412.903L428.527 0Z"/><path fill="#D8DBEF" d="M449.172 0H454.194L439.128 8H433.548L449.172 0Z"/><path fill="#D8DBEF" d="M469.817 0H474.839L459.773 8H454.194L469.817 0Z"/><path fill="#D8DBEF" d="M490.462 0H495.484L480.418 8H474.839L490.462 0Z"/><path fill="#D8DBEF" d="M511.107 0H516.129L501.064 8H495.484L511.107 0Z"/><path fill="#D8DBEF" d="M531.752 0H536.774L521.709 8H516.129L531.752 0Z"/><path fill="#D8DBEF" d="M552.398 0H557.419L542.354 8H536.774L552.398 0Z"/><path fill="#D8DBEF" d="M573.043 0H578.065L562.999 8H557.419L573.043 0Z"/><path fill="#D8DBEF" d="M593.688 0H598.71L583.644 8H578.065L593.688 0Z"/><path fill="#D8DBEF" d="M614.333 0H619.355L604.289 8H598.71L614.333 0Z"/><path fill="#D8DBEF" d="M634.978 0H640L624.935 8H619.355L634.978 0Z"/><path fill="#D8DBEF" d="M655.623 0H660.645L645.58 8H640L655.623 0Z"/><path fill="#D8DBEF" d="M676.269 0H681.29L666.225 8H660.645L676.269 0Z"/><path fill="#D8DBEF" d="M696.914 0H701.936L686.87 8H681.29L696.914 0Z"/><path fill="#D8DBEF" d="M717.559 0H722.581L707.515 8H701.935L717.559 0Z"/><path fill="#D8DBEF" d="M738.204 0H743.226L728.16 8H722.581L738.204 0Z"/><path fill="#D8DBEF" d="M758.849 0H763.871L748.806 8H743.226L758.849 0Z"/><path fill="#D8DBEF" d="M779.494 0H784.516L769.451 8H763.871L779.494 0Z"/><path fill="#D8DBEF" d="M800.139 0H805.161L790.096 8H784.516L800.139 0Z"/><path fill="#D8DBEF" d="M820.785 0H825.806L810.741 8H805.161L820.785 0Z"/><path fill="#D8DBEF" d="M841.43 0H846.452L831.386 8H825.806L841.43 0Z"/><path fill="#D8DBEF" d="M862.075 0H867.097L852.031 8H846.452L862.075 0Z"/><path fill="#D8DBEF" d="M882.72 0H887.742L872.677 8H867.097L882.72 0Z"/><path fill="#D8DBEF" d="M903.365 0H908.387L893.322 8H887.742L903.365 0Z"/><path fill="#D8DBEF" d="M924.01 0H929.032L913.967 8H908.387L924.01 0Z"/><path fill="#D8DBEF" d="M944.656 0H949.677L934.612 8H929.032L944.656 0Z"/><path fill="#D8DBEF" d="M965.301 0H970.323L955.257 8H949.677L965.301 0Z"/><path fill="#D8DBEF" d="M985.946 0H990.968L975.902 8H970.323L985.946 0Z"/><path fill="#D8DBEF" d="M1006.59 0H1011.61L996.547 8H990.968L1006.59 0Z"/><path fill="#D8DBEF" d="M1027.24 0H1032.26L1017.19 8H1011.61L1027.24 0Z"/><path fill="#D8DBEF" d="M1047.88 0H1052.9L1037.84 8H1032.26L1047.88 0Z"/></g></svg>