<svg xmlns="http://www.w3.org/2000/svg" width="14" height="14" fill="none" viewBox="0 0 14 14"><path fill="#fff" fill-rule="evenodd" d="M7.7 4.2C8.0866 4.2 8.4 4.5134 8.4 4.9V7.7C8.4 8.0866 8.0866 8.4 7.7 8.4H5.6C5.2134 8.4 4.9 8.0866 4.9 7.7C4.9 7.3134 5.2134 7 5.6 7H7V4.9C7 4.5134 7.3134 4.2 7.7 4.2Z" clip-rule="evenodd"/><path fill="#fff" fill-rule="evenodd" d="M7 1.4C3.90721 1.4 1.4 3.90721 1.4 7C1.4 10.0928 3.90721 12.6 7 12.6C10.0928 12.6 12.6 10.0928 12.6 7C12.6 3.90721 10.0928 1.4 7 1.4ZM0 7C0 3.13401 3.13401 0 7 0C10.866 0 14 3.13401 14 7C14 10.866 10.866 14 7 14C3.13401 14 0 10.866 0 7Z" clip-rule="evenodd"/></svg>