<svg xmlns="http://www.w3.org/2000/svg" width="293" height="147" fill="none" viewBox="0 0 293 147"><rect width="10" height="4" x="72.379" y="9.977" fill="#76EE03" transform="rotate(45 72.3789 9.97656)"/><rect width="10" height="4" fill="#76EE03" transform="matrix(0.707107 -0.707107 -0.707107 -0.707107 61.8284 136.189)"/><rect width="7" height="4" x="91" y="22.204" fill="#FD0272" transform="rotate(-45 91.0001 22.2041)"/><rect width="7" height="4" fill="#FD0272" transform="matrix(0.707107 0.707107 0.707107 -0.707107 80.4496 123.962)"/><rect width="7" height="4" x="135.631" fill="#FFE803" transform="rotate(56.5813 135.631 0)"/><rect width="7" height="4" fill="#FFE803" transform="matrix(0.550754 -0.834668 -0.834668 -0.550754 125.08 146.166)"/><rect width="14" height="4" x="154.695" y="15.134" fill="#501BD5" transform="rotate(10.0052 154.695 15.1338)"/><rect width="14" height="4" fill="#501BD5" transform="matrix(0.984792 -0.173737 -0.173737 -0.984792 144.144 131.032)"/><rect width="14" height="4" x="4.317" y="45.134" fill="#501BD5" transform="rotate(56.0262 4.31726 45.1338)"/><rect width="14" height="4" fill="#501BD5" transform="matrix(-0.558813 0.829294 0.829294 0.558813 287.76 45.1338)"/><rect width="5" height="4" x="12.385" y="75.064" fill="#FD0272" transform="rotate(137.088 12.3854 75.0635)"/><rect width="5" height="4" fill="#FD0272" transform="matrix(0.732397 0.680877 0.680877 -0.732397 279.692 75.0635)"/><rect width="14" height="4" x="12.53" y="103.959" fill="#FFE803" transform="rotate(-153.506 12.5297 103.959)"/><rect width="14" height="4" fill="#FFE803" transform="matrix(0.89498 -0.446106 -0.446106 -0.89498 279.548 103.959)"/><rect width="6" height="4" x="14.188" y="126.214" fill="#76EE03" transform="rotate(-50.8691 14.188 126.214)"/><rect width="6" height="4" fill="#76EE03" transform="matrix(-0.631095 -0.775706 -0.775706 0.631095 277.889 126.214)"/><rect width="5" height="4" x="181.728" y="4.134" fill="#01EDB1" transform="rotate(68.7523 181.728 4.13379)"/><rect width="5" height="4" fill="#01EDB1" transform="matrix(0.3624 -0.932023 -0.932023 -0.3624 171.178 142.032)"/><rect width="5" height="4" x="208.728" y="17.134" fill="#F70A19" transform="rotate(68.7523 208.728 17.1338)"/><rect width="5" height="4" fill="#F70A19" transform="matrix(0.3624 -0.932023 -0.932023 -0.3624 198.178 129.032)"/><rect width="12" height="4" x="236.838" y="3.904" fill="#FFE803" transform="rotate(-15 236.838 3.9043)"/><rect width="12" height="4" fill="#FFE803" transform="matrix(0.965926 0.258819 0.258819 -0.965926 226.287 142.262)"/></svg>