<svg xmlns="http://www.w3.org/2000/svg" width="247" height="87" fill="none" viewBox="0 0 247 87"><rect width="196.265" height="86.116" x="25.368" fill="#254078" rx="6"/><rect width="247" height="80.776" x="0" y="2.67" fill="#30497F" rx="6"/><g clip-path="url(#clip0)"><rect width="360" height="121" x="3.005" y="2.67" fill="#3B5999" rx="6"/><rect width="372" height="3" x="-2.995" y="2.67" fill="#5274BB"/></g><rect width="38.051" height="43.392" x="12.016" y="21.362" fill="#2E4879" rx="6"/><rect width="34.046" height="43.392" x="14.019" y="21.362" fill="#ED8E00" rx="5"/><rect width="34.046" height="43.392" x="16.022" y="21.362" fill="#F0AE00" rx="7"/><rect width="25.368" height="8.678" x="19.36" y="38.719" fill="#1C182A" rx="4.339"/><path fill="#FFF017" d="M31.7096 32.043L28.038 34.7132V51.0686L31.7096 54.0727H36.7163V32.043H31.7096Z" opacity=".4"/><path fill="#FFF017" d="M34.0461 32.043L30.0406 34.7132V51.0686L34.0461 54.0727H36.7163V32.043H34.0461Z"/><defs><clipPath id="clip0"><rect width="239.657" height="80.776" x="4.005" y="2.67" fill="#fff" rx="6"/></clipPath></defs></svg>