<svg xmlns="http://www.w3.org/2000/svg" width="32" height="32" fill="none" viewBox="0 0 32 32"><path fill="#CFE6E6" d="M22.3295 32.0002H32V12.6592H22.3295L17.4943 22.3297L22.3295 32.0002Z"/><path fill="#E6F2F2" d="M12.659 12.6592H22.3295V32.0002H12.659V12.6592Z"/><path fill="#3E3373" d="M17.4943 28.0613C18.8202 28.0613 19.8951 26.9886 19.8951 25.6654C19.8951 24.3422 18.8202 23.2695 17.4943 23.2695C16.1683 23.2695 15.0934 24.3422 15.0934 25.6654C15.0934 26.9886 16.1683 28.0613 17.4943 28.0613Z"/><path fill="#281F59" d="M27.1648 21.3894C28.4908 21.3894 29.5657 20.3167 29.5657 18.9935C29.5657 17.6703 28.4908 16.5977 27.1648 16.5977C25.8388 16.5977 24.7639 17.6703 24.7639 18.9935C24.7639 20.3167 25.8388 21.3894 27.1648 21.3894Z"/><path fill="#CFE6E6" d="M9.67052 19.341H19.341V0H9.67052L4.83527 9.6705L9.67052 19.341Z"/><path fill="#E6F2F2" d="M0 0H9.6705V19.341H0V0Z"/><path fill="#CC2929" d="M14.3657 9.67098C14.3657 12.2585 12.2638 14.356 9.6707 14.356L7.8092 9.57548L9.6707 4.98535C12.2638 4.98535 14.3657 7.08285 14.3657 9.67098Z"/><path fill="#FF4D4D" d="M9.67071 4.98535V14.356C7.07758 14.356 4.97571 12.2585 4.97571 9.67098C4.97571 7.08285 7.07758 4.98535 9.67071 4.98535Z"/></svg>