<svg xmlns="http://www.w3.org/2000/svg" width="120" height="120" fill="none" viewBox="0 0 120 120"><g clip-path="url(#clip0_993_94)"><path fill="#F3BA2F" d="M37.5553 51.4848L59.5033 29.5391L81.4579 51.4937L94.2286 38.7253L59.5033 4L24.7869 38.7142L37.5553 51.4826M3 60.5033L15.7706 47.7305L28.5391 60.5033L15.7684 73.2673L3 60.5033ZM37.5553 69.5196L59.5033 91.4631L81.4579 69.5085L94.2352 82.2703L59.5033 117.007L24.7869 82.288L24.7692 82.2681L37.5553 69.5173M90.4631 60.5033L103.232 47.7349L116.007 60.5033L103.238 73.2717L90.4631 60.5033Z"/><path fill="#F3BA2F" d="M72.4494 60.5032L59.5022 47.5361L49.9231 57.1108L48.8196 58.2144L46.5528 60.4811L46.5352 60.4988L46.5528 60.5164L59.5022 73.4637L72.4583 60.5076H72.4472"/></g><defs><clipPath id="clip0_993_94"><rect width="113" height="113" fill="#fff" transform="translate(3 4)"/></clipPath></defs></svg>